<?xml version="1.0" encoding="utf-8"?>
<!-- Generator: Adobe Illustrator 25.0.1, SVG Export Plug-In . SVG Version: 6.00 Build 0)  -->
<svg version="1.1" id="Capa_1" xmlns="http://www.w3.org/2000/svg" xmlns:xlink="http://www.w3.org/1999/xlink" x="0px" y="0px"
	 viewBox="0 0 100 100" style="enable-background:new 0 0 100 100;" xml:space="preserve">
<style type="text/css">
	.st0{fill:#FFB624;}
	.st1{fill:#113D58;}
</style>
<g>
	<g>
		<polygon class="st0" points="31,34.3 33.9,31.7 39.2,27 37.3,23.2 36.3,22.3 33.3,19.9 31.2,19.6 29.3,20.3 27,22.6 21,28.7 
			15.8,33.9 9.9,39.7 7.2,42 6.1,44.3 6.4,46 12.2,50.7 18.6,47.2 25.1,41.7 		"/>
		<path class="st0" d="M69.5,23.8l2.2,2.2l1.5,0.8l4.2-2.8l-0.3-1.8c0,0-3.7-1.5-5.8-1.6c-2.2-0.1-5.8-0.7-5.8-0.7l-1,0.2l2.2,1.9
			L69.5,23.8z"/>
		<polygon class="st0" points="77,32 78.8,32.7 79.7,34.5 79.9,35.9 82,35.1 85.5,31.3 85.3,30.6 84.1,30.4 83.1,29.9 82.1,29.4 
			81.4,28.2 81.2,26.7 80.6,26.7 75.8,31.7 		"/>
		<path class="st0" d="M52.8,57l-0.2-0.8l-0.3-0.5L62.5,43l7.4-7.1l1.5-0.5l1-0.5l0.6-1l-1.2-1.6l-0.2-0.7l-1.1-1h-0.9L69,31.5
			l-0.7,0.5l-1.6,0.2L66.5,33c0,0-0.5,1.3-0.6,1.3c-0.1,0.1-2.7,3.6-2.7,3.6l-3.7,3.8L53,47.3L48.6,51l-0.8,0.5h-0.9l-2.5,2.3
			l-4.4,4.3l-8.5,8.6l-5.9,5.8l-2.7,2.8L21.5,77l-0.4,1.8l0.6,1.9l13.7-12.3l10-7.9l5.8-2.7l1-0.4L52.8,57z"/>
		<polygon class="st0" points="93.2,76.2 88.2,71.5 71.2,55.7 67.8,52.9 66.8,53.1 63.5,56.4 62.6,57.2 63.3,57.9 64,58.6 89.3,83 
			92.3,81.4 93.7,80.1 94,78.2 		"/>
		<polygon class="st0" points="51.7,66.9 51.7,78.8 52.1,79.1 63,79.1 63.3,67.7 58,67.2 		"/>
	</g>
	<g>
		<g>
			<path class="st1" d="M93.1,75.6l-25-22.8c-0.4-0.4-1.1-0.4-1.5,0l-0.5,0.5c0-0.1-0.1-0.2-0.1-0.3l-4.8-4.8
				c-0.8,0.8-1.5,1.7-2.2,2.5l4.7,4.7c0.1,0.1,0.2,0.1,0.3,0.1l-0.9,0.9c-0.4,0.4-0.4,1.1,0,1.5l23,24.9c0.8,0.8,1.8,1.1,2.8,1.1
				c1,0,2.1-0.4,2.9-1.2l1.5-1.5C94.7,79.7,94.7,77.2,93.1,75.6z M92.8,80.7L66.6,54.4l-3.1,3.1l0,0c-0.2-0.2-0.2-0.4,0-0.6l3.7-3.7
				c0.1-0.1,0.2-0.1,0.3-0.1c0.1,0,0.2,0,0.3,0.1l25,22.8C94,77.3,94,79.3,92.8,80.7z"/>
			<path class="st1" d="M52.7,56.1c1.9-2.4,14.1-17.9,18.8-18.6c0.3-0.1,0.6-0.3,0.6-0.7v-1.3c0,0,0,0,0,0c0,0,0,0,0.1,0l0.9-0.6
				c0.2-0.1,0.3-0.3,0.3-0.6c0,0,0,0,0,0c0.2,0,0.4-0.1,0.6-0.3l1.8-1.8l0,0c0,0,1.5-0.3,2.6,0.5c0.8,0.6,1.2,1.8,1.2,3.3h0
				c0,0.2,0,0.4,0.2,0.6l3,3v0c0.1,0.1,0.3,0.2,0.4,0.2c0.2,0,0.3-0.1,0.4-0.2l5.6-5.6c0.2-0.2,0.2-0.6,0-0.9l-3-3
				c-0.2-0.2-0.4-0.2-0.6-0.1c-1.6,0-2.7-0.4-3.3-1.2c-0.9-1.1-0.5-2.6-0.5-2.6l-0.1,0c0-0.1,0-0.1,0-0.2c0-0.1-0.1-0.3-0.2-0.4
				l-3.4-3.4c0,0-0.1-0.1-0.1-0.1l0-0.1c-0.2-0.1-4.3-2.7-15-2.7c-0.2,0-0.3,0.1-0.3,0.3c0,0.1,0,0.3,0.2,0.4c0.1,0,8.5,3.7,8.5,8.1
				l-1.6,1.6c-0.2,0.2-0.2,0.4-0.3,0.6c0,0,0,0,0,0c-0.2,0-0.4,0.2-0.6,0.4l-0.6,0.9c0,0,0,0,0,0.1c0,0,0,0,0,0H67
				c-0.3,0-0.6,0.3-0.7,0.6c-0.4,2.5-5.1,7.3-9.7,11.4L53.9,41c-0.1-0.1-0.2-0.3-0.2-0.4V27.8c0-0.2-0.1-0.3-0.2-0.4l-2.1-2.1
				L44.1,18l-1.9-1.9c-0.2-0.2-0.6-0.2-0.8,0L39.4,18l-3.5,3.5c-0.1,0.1-0.1,0.1-0.1,0.2l-1.2-1.2c-0.8-0.8-1.8-1.2-2.9-1.2
				c-1.1,0-2.1,0.4-2.9,1.2L6.9,42.3c-0.8,0.8-1.2,1.8-1.2,2.9c0,1.1,0.4,2.1,1.2,2.9l5.8,5.8c0.8,0.8,1.8,1.2,2.9,1.2
				c1.1,0,2.1-0.4,2.9-1.2l21.8-21.8c0.8-0.8,1.2-1.8,1.2-2.9c0-1.1-0.4-2.1-1.2-2.9L38,24c0.1,0,0.2-0.1,0.2-0.1l3.1-3.1
				c0.2-0.2,0.6-0.2,0.8,0l8.1,8.1c0.1,0.1,0.2,0.3,0.2,0.4v13l0,0l3.7,3.7c-3,2.6-5.6,4.6-6.4,5.2c-0.2-0.1-0.3-0.1-0.5-0.1
				c-0.4,0-0.7,0.1-1,0.4L22,75.7c-1.6,1.6-1.6,4.1,0,5.7l1.5,1.5c0.8,0.8,1.8,1.2,2.9,1.2c1,0,2.1-0.4,2.9-1.2l23.3-25.2
				C53,57.3,53.1,56.6,52.7,56.1z M7.4,42.7L29.1,21c0.7-0.7,1.5-1,2.5-1c0.9,0,1.8,0.4,2.5,1l3.4,3.4c-2.3,2.3-21.3,21.5-24.6,23.2
				c-2.9,1.5-5.7-1.9-6.5-3.1C6.6,43.8,6.9,43.2,7.4,42.7z M73.7,25.9c-0.7-1.3-3-4.6-8.2-5.7c6.8,0.3,10.4,1.7,11.7,2.3L73.7,25.9z
				 M81.7,29.3c0.7,0.8,1.7,1.3,3.1,1.4l-4.7,4.7C80,34,79.5,33,78.7,32.3c-0.8-0.6-1.7-0.7-2.3-0.7L81,27
				C81,27.7,81.1,28.6,81.7,29.3z M69.5,31.1c0-0.1,0.1-0.1,0.1-0.1c0,0,0.1,0,0.1,0l3,3c0,0,0,0.1,0,0.1c0,0,0,0.1-0.1,0.1
				l-0.9,0.6L68.9,32L69.5,31.1z M67,32.4C67,32.4,67,32.4,67,32.4l1.3-0.1c0,0,0.1,0,0.1,0l1.5,1.5L50.2,53.6l-2-2
				C51,49.4,66.3,37.4,67,32.4z M22.5,76.1l24.2-24.2c0.1-0.1,0.3-0.2,0.5-0.2c0.2,0,0.4,0.1,0.5,0.2l4.4,4.4
				c0.3,0.3,0.3,0.6,0.1,0.9l-3.8-3.8L21.8,80C21.2,78.8,21.4,77.2,22.5,76.1z"/>
			<path class="st1" d="M77.4,30.9c0,0,2.7,0.5,3.4,3.4l1.9-1.9L79.4,29L77.4,30.9z"/>
		</g>
		<path class="st1" d="M51.4,66.3v13.2h10.4h2.8V66.3H51.7H51.4z M61.8,69v3.6h-3.4v-4.2L61.8,69z M57.6,68.2v4.4h-5.5v-5.4
			L57.6,68.2z M52.1,73.3h5.5v5.5h-5.5V73.3z M58.3,78.8v-5.5h3.4v5.5H58.3z"/>
	</g>
</g>
</svg>
