<?xml version="1.0" encoding="utf-8"?>
<!-- Generator: Adobe Illustrator 25.0.1, SVG Export Plug-In . SVG Version: 6.00 Build 0)  -->
<svg version="1.1" id="Capa_1" xmlns="http://www.w3.org/2000/svg" xmlns:xlink="http://www.w3.org/1999/xlink" x="0px" y="0px"
	 viewBox="0 0 100 100" style="enable-background:new 0 0 100 100;" xml:space="preserve">
<style type="text/css">
	.st0{fill:#FFB624;}
</style>
<g>
	<g>
		<path class="st0" d="M94.3,76.3L68.6,52.8c-0.4-0.4-1.1-0.4-1.5,0l-0.5,0.5c0-0.1-0.1-0.2-0.2-0.3l-5-5c-0.8,0.9-1.5,1.7-2.2,2.6
			l4.8,4.8c0.1,0.1,0.2,0.1,0.3,0.2l-0.9,0.9c-0.4,0.4-0.4,1.1,0,1.5l23.6,25.6c0.8,0.8,1.8,1.2,2.9,1.2c1.1,0,2.1-0.4,3-1.2
			l1.6-1.6C95.9,80.5,95.9,77.9,94.3,76.3z M93.9,81.5L67,54.6l-3.2,3.2l0-0.1c-0.2-0.2-0.2-0.5,0-0.6l3.8-3.8
			c0.1-0.1,0.2-0.1,0.3-0.1c0.1,0,0.2,0,0.3,0.1l25.7,23.4C95.1,78,95.1,80.1,93.9,81.5z"/>
		<path class="st0" d="M52.8,56.2c1.9-2.5,14.5-18.4,19.3-19.1c0.3-0.1,0.6-0.4,0.6-0.7v-1.3c0,0,0,0,0,0c0,0,0.1,0,0.1,0l0.9-0.6
			c0.2-0.1,0.3-0.3,0.3-0.6c0,0,0,0,0,0c0.2,0,0.4-0.1,0.6-0.3l1.8-1.8l0,0c0,0,1.5-0.3,2.7,0.6c0.8,0.7,1.2,1.8,1.2,3.4h0
			c0,0.2,0,0.4,0.2,0.6l3.1,3.1v0c0.1,0.1,0.3,0.2,0.4,0.2c0.2,0,0.3-0.1,0.4-0.2l5.7-5.7c0.2-0.2,0.2-0.6,0-0.9l-3.1-3.1
			c-0.2-0.2-0.4-0.2-0.6-0.1c-1.6,0-2.7-0.4-3.4-1.2c-0.9-1.1-0.6-2.6-0.6-2.7l-0.1,0c0-0.1,0-0.1,0-0.2c0-0.1-0.1-0.3-0.2-0.4
			l-3.5-3.5c0,0-0.1-0.1-0.1-0.1l0-0.1c-0.2-0.1-4.5-2.8-15.4-2.8c-0.2,0-0.3,0.1-0.3,0.3c0,0.2,0,0.3,0.2,0.4
			c0.1,0,8.8,3.8,8.7,8.3l-1.6,1.6c-0.2,0.2-0.3,0.4-0.3,0.6c0,0,0,0,0,0c-0.2,0-0.5,0.2-0.6,0.4l-0.6,0.9c0,0,0,0,0,0.1
			c0,0,0,0,0,0h-1.3c-0.4,0-0.7,0.3-0.7,0.6c-0.4,2.6-5.2,7.5-10,11.7L54,40.8c-0.1-0.1-0.2-0.3-0.2-0.4V27.3c0-0.2-0.1-0.3-0.2-0.4
			l-2.2-2.2l-7.5-7.5l-2-2c-0.2-0.2-0.6-0.2-0.8,0l-2,2l-3.6,3.6c-0.1,0.1-0.1,0.1-0.1,0.2l-1.2-1.2c-0.8-0.8-1.9-1.2-3-1.2
			c-1.1,0-2.2,0.4-3,1.2L5.8,42.1c-0.8,0.8-1.2,1.9-1.2,3c0,1.1,0.4,2.2,1.2,3l6,6c0.8,0.8,1.9,1.2,3,1.2c1.1,0,2.2-0.4,3-1.2
			l22.4-22.4c0.8-0.8,1.2-1.9,1.2-3c0-1.1-0.4-2.2-1.2-3l-2.4-2.4c0.1,0,0.2-0.1,0.2-0.1l3.2-3.2c0.2-0.2,0.6-0.2,0.8,0l8.3,8.3
			c0.1,0.1,0.2,0.3,0.2,0.4V42l0,0l3.8,3.8c-3.1,2.6-5.8,4.7-6.6,5.4c-0.2-0.1-0.4-0.1-0.5-0.1c-0.4,0-0.7,0.1-1,0.4L21.3,76.4
			c-1.6,1.6-1.6,4.3,0,5.9l1.6,1.6c0.8,0.8,1.9,1.2,2.9,1.2c1.1,0,2.1-0.4,3-1.2L52.7,58C53.1,57.5,53.1,56.8,52.8,56.2z M6.2,42.6
			l22.4-22.4c0.7-0.7,1.6-1.1,2.5-1.1c1,0,1.9,0.4,2.5,1.1l3.5,3.5c-2.3,2.4-21.9,22-25.3,23.8c-3,1.6-5.8-2-6.6-3.2
			C5.4,43.7,5.7,43,6.2,42.6z M74.3,25.3c-0.7-1.4-3.1-4.7-8.4-5.9c7,0.3,10.7,1.7,12,2.3L74.3,25.3z M82.5,28.8
			c0.7,0.8,1.7,1.3,3.2,1.4L80.9,35c-0.1-1.4-0.6-2.5-1.4-3.2c-0.8-0.6-1.7-0.8-2.4-0.8l4.7-4.7C81.8,27.1,81.9,28,82.5,28.8z
			 M70,30.6c0-0.1,0.1-0.1,0.1-0.1c0,0,0.1,0,0.1,0l3.1,3.1c0,0,0,0.1,0,0.1c0,0,0,0.1-0.1,0.1l-0.9,0.6l-3-3L70,30.6z M67.4,32
			C67.4,31.9,67.5,31.9,67.4,32l1.4-0.1c0,0,0.1,0,0.1,0l1.5,1.5L50.2,53.7l-2-2C51,49.4,66.7,37,67.4,32z M21.8,76.8L46.6,52
			c0.1-0.1,0.3-0.2,0.5-0.2c0.2,0,0.4,0.1,0.5,0.2l4.5,4.5c0.3,0.3,0.3,0.7,0.1,0.9l-3.9-3.9L21.1,80.8
			C20.5,79.5,20.7,77.9,21.8,76.8z"/>
		<path class="st0" d="M78.2,30.4c0,0,2.8,0.5,3.5,3.5l2-2l-3.5-3.5L78.2,30.4z"/>
	</g>
	<path class="st0" d="M51.4,66.8v13.6h10.7H65V66.8H51.8H51.4z M62.1,69.5v3.6h-3.5v-4.3L62.1,69.5z M57.8,68.7v4.5h-5.6v-5.5
		L57.8,68.7z M52.2,73.9h5.6v5.6h-5.6V73.9z M58.6,79.6v-5.6h3.5v5.6H58.6z"/>
</g>
</svg>
